<svg width="15" height="16"
    xmlns="http://www.w3.org/2000/svg"
    xmlns:xlink="http://www.w3.org/1999/xlink">
    <defs>
        <path id="a" d="M0 16.369h14.416V.999H0z"/>
    </defs>
    <g transform="translate(0 -1)" fill="none" fill-rule="evenodd">
        <path d="M12.633 6.222a.793.793 0 01-.793-.792c0-.352.232-.64.549-.744h.124V4.66c.041-.006.078-.024.12-.024a.794.794 0 010 1.585zm-1.02 9.247h-8.81v-3.847h.009v-1.486h8.785v1.486h.016v3.847zM2.803 3.646h8.811V1.9H2.803v1.746zm10.251 0h-.541V1H1.904v2.646h-.542C.61 3.646 0 4.256 0 5.008v5.252c0 .752.61 1.362 1.362 1.362h.542v4.746h10.609v-4.746h.541c.753 0 1.362-.61 1.362-1.362V5.008c0-.752-.609-1.362-1.362-1.362z" fill="#F28320"/>
        <mask id="b" fill="#fff">
            <use xlink:href="#a"/>
        </mask>
        <path fill="#F28320" mask="url(#b)" d="M3.844 12.296h6.812v-.9H3.844zm0 1.898h6.812v-.899H3.844z"/>
    </g>
</svg>